<svg xmlns="http://www.w3.org/2000/svg" viewBox="0 0 211.8 50.8"><path fill="#013A81" d="M56.4 11.4c-.6-.1-1.1-.2-1.5-.5C53 9.7 53.5 7.4 52 6.4c-1.8-1.1-3.8.1-5.1-.6-1.7-.9-1.9-3.2-4.2-3.9-3.3-1.1-3.8.8-6.4.6C33.4 2.2 32.2 0 30 0c-2.1 0-3.4 2.2-6.2 2.5-2.6.3-3.1-1.7-6.4-.6-2.3.8-2.5 3.1-4.2 3.9-1.3.7-3.3-.5-5.1.6-1.6.9-1 3.4-2.9 4.5 0 0-.4.3-1.6.5-1.2.2-3.6 1.4-3.6 7.2.1 5.8 4.3 14.2 15.2 23.4.9.6 9 8 14.8 8 6.9 0 14.8-8.1 14.8-8.1 10.9-9.2 15-17.6 15.1-23.4.1-5.7-2.3-7-3.5-7.1z"/><path fill="#0E71F2" d="M25.3 46.8C-1 26.6 5.6 17.2 6.7 15.8 14.1 5.9 26.9 6 29.7 6 32.6 5.9 47 6 54 16.4c2.2 3.2 1.8 6.3 1.3 9.5 2-4.5 1.9-8.4-.5-11.6C46.9 4 33.3 4 29.8 4s-16.6.2-24.6 10.4C-3 24.7 14.4 39.9 25.3 46.8z"/><path fill="#0E71F2" d="M52.7 25.5c-.4-9.9-10.4-15.4-22.7-15.4-7.9 0-16.5 3.8-19.6 9.7 3.6-4.3 10.1-7.5 18.8-7.9 12.7-.2 21.5 7.7 19.8 17.4-.2 1.3-.5 2.1-.8 3v-1.1C48.2 22.8 40 17 29.8 17c-6.3 0-14 3.7-17.4 8.8 3.2-3.6 10.4-7.5 16.6-7.3 11 .3 16.9 6.8 16.3 15.6-.1 1.1-.4 2-.7 2.7 0-.1.1-.6.1-1.7-.3-6.4-7.3-11.6-15.1-11.6-5 0-11.5 2.7-14 7.2 2.6-3.1 7.8-6 13-5.9C37 25.1 41.7 31 41.7 37c0 .9-.1 1.8-.4 2.8-.6-7.3-6.7-10.5-11.6-10.6-3.4 0-7.8 1.6-10.5 5.5 2-1.9 5.4-4.4 9.5-4.3 6.8.2 9.6 4 9.7 9 0 0 0 2.3-.9 3.6.2-.7.2-.9.2-1.6 0-3.9-4.3-7.2-8.7-6.5-3 .4-5 2.2-5.7 3.8 1.1-1.6 3.5-3 6.5-2.8 3.3.1 6.1 2.5 6.2 5.9.2 1.7-.7 5.5-5.9 6.3 6.6.1 16.5-10.2 19.6-13.6 3.6-3.8 3.1-8.9 3-9z"/><circle fill="#FFF" cx="30" cy="42.6" r="3.8"/><path fill="#0E71F2" d="M30.4 39.9h-.3c1.2.2 2.2 1.3 2.2 2.6 0 .6-.2 1.1-.5 1.6.6-.4 1-1.1 1-1.9-.1-1.3-1.1-2.3-2.4-2.3z"/><path fill="#013A81" d="M76.6 13.5c-.7.3-1.4.9-1.4 1.8v17.3c0 2.8 1 7.2 6.8 7.2 5.5 0 7.2-3.5 7.2-7.2L89 15.3c0-.9-.4-1.5-1.1-1.8h4.3c-.6.3-1.1.9-1.1 1.8L91 32.5c0 6.7-4.3 9.2-9.5 9.2-4.5 0-10.3-2.2-10.3-9.1V15.4c0-.9-.7-1.5-1.3-1.8l6.7-.1zm34.5 14.2v12.1c0 .9.5 1.2 1.1 1.6h-5.6c.7-.4 1.1-.7 1.1-1.6V29.2c0-2.3-.7-4.8-4.3-4.8-1.7 0-3.4 1.1-4.2 2.1v13.3c0 .9.4 1.2 1.1 1.6h-5.7c.7-.4 1-.7 1-1.6V24.6c0-1.3-.7-1.5-1.4-1.7l4.9-.9v2.9c.9-1 3.3-2.9 5.9-2.9 3 0 6 2.1 6.1 5.7zm6.6-13.9c1.1 0 2 .9 2 2s-.9 2.1-2 2.1-2.1-1-2.1-2.1c.1-1.1 1-2 2.1-2zm1.8 8.2v17.8c0 .9.4 1.2 1.1 1.6h-5.7c.6-.4 1.1-.7 1.1-1.6V24.6c0-1.3-.8-1.4-1.4-1.6l4.9-1zm12.7 2.6c3.9 2 7.8 3.3 7.8 8.8 0 5.1-4.7 8.4-9.1 8.4-3.6 0-6.1-1.4-7.6-2.3l-.1-6.2c.9 3 3.1 6.7 7.5 6.7s5.6-3.5 5.6-5.5c0-3.9-3-4.7-6.9-6.7-4-2-6-4.1-6-7.4 0-4.9 4.6-7.3 8.5-7.3 1.5 0 3.9.3 5.9 1.6l.2 5.4c-.5-2-2.8-5.3-6.6-5.3-3.5 0-4.6 2.6-4.6 4.3-.2 2.6 1.4 3.6 5.4 5.5zm26.2-2.6v16.1c0 1.2.4 2.1 1.6 2.3l-3.6 1.3c-1-.6-1.5-1-1.5-2.9-1.2 1.4-3.1 2.9-6 2.9-2.4 0-6.2-1.6-6.2-7.7v-9.4c0-1.3-.8-1.4-1.4-1.6l5-1v12.1c0 3.5 1.9 5.3 4.2 5.3 2 0 3.2-.9 4.4-2.1V24.6c0-1.3-.8-1.4-1.4-1.6l4.9-1zm8.8 28.7h-5.7c.7-.3 1.1-.7 1.1-1.6V24.8c0-1.3-.7-1.5-1.4-1.7l4.9-1.1v2.5c.8-1 3-2.5 5.6-2.5 3.5 0 8 3 8 9.8 0 4.4-3.2 10-9.4 10-1.9 0-3.1-.4-4.2-.9v8.4c0 .8.5 1.2 1.1 1.4zm3.1-26.4c-1.8 0-3.4 1-4.1 2v12c.7.9 1.9 1.9 3.7 1.9 3.6 0 6-3.1 6-8.2-.1-6.3-3.5-7.7-5.6-7.7zm28.3 10.8c-.1 3.4-3.3 6.6-7.7 6.6-5.8 0-9.3-4.9-9.3-9.8 0-4.5 3.2-10 9.4-10 3.5 0 7.7 2.4 7.7 8.5h-13.3v1.2c0 4.1 2.2 7.7 6.6 7.7 2.9.1 5.8-2.3 6.6-4.2zm-8-11.6c-3 0-4.6 2.7-4.9 5.5h9.4c-.1-4-2.3-5.5-4.5-5.5zm15.2-1.5v3.6c.9-1.5 3-3.6 4.4-3.6 1 0 1.1.1 1.6.3v3.9c-.6-.8-1.4-1.3-2.4-1.3-1.6 0-2.8 1.2-3.6 2.2v12.7c0 .9.4 1.2 1.1 1.6h-5.7c.7-.4 1.1-.7 1.1-1.6V24.6c0-1.3-.8-1.4-1.5-1.6l5-1z"/></svg>