<?xml version="1.0" encoding="UTF-8" standalone="no"?>


<svg
   xmlns:dc="http://purl.org/dc/elements/1.1/"
   xmlns:cc="http://creativecommons.org/ns#"
   xmlns:rdf="http://www.w3.org/1999/02/22-rdf-syntax-ns#"
   xmlns:svg="http://www.w3.org/2000/svg"
   xmlns="http://www.w3.org/2000/svg"
   xmlns:sodipodi="http://sodipodi.sourceforge.net/DTD/sodipodi-0.dtd"
   xmlns:inkscape="http://www.inkscape.org/namespaces/inkscape"
   width="333.07199"
   height="27.97332"
   viewBox="0 0 88.125301 7.4012744"
   version="1.1"
   id="svg6148"
   inkscape:version="0.92.0 r15299">
  <defs
     id="defs6142" />
  <sodipodi:namedview
     id="base"
     pagecolor="#ffffff"
     bordercolor="#666666"
     borderopacity="1.0"
     inkscape:pageopacity="0.0"
     inkscape:pageshadow="2"
     inkscape:zoom="2.4151389"
     inkscape:cx="166.036"
     inkscape:cy="13.486658"
     inkscape:document-units="mm"
     inkscape:current-layer="layer1"
     showgrid="false"
     fit-margin-top="0"
     fit-margin-left="0"
     fit-margin-right="0"
     fit-margin-bottom="0"
     units="px"
     inkscape:window-width="1280"
     inkscape:window-height="744"
     inkscape:window-x="-4"
     inkscape:window-y="-4"
     inkscape:window-maximized="1" />
  
  <g
     inkscape:groupmode="layer"
     id="layer1"
     transform="translate(-19.569645,-152.55993)">
    <g
       id="g6211"
       transform="translate(0.1322913,-0.13228787)">
      <path
         inkscape:connector-curvature="0"
         id="path5002"
         style="fill:#231f20;fill-opacity:1;fill-rule:nonzero;stroke:none;stroke-width:0.35277778"
         d="m 21.301785,159.86877 h -1.73214 v -6.95289 h 1.73214 z" />
      <path
         d="m 23.738775,155.84076 c 0.47025,-0.53728 0.927809,-0.76129 1.53035,-0.76129 0.73201,0 1.71027,0.41698 1.71027,1.80445 v 2.98486 h -1.4792 v -2.86562 c 0,-0.65863 -0.31503,-0.93839 -0.73307,-0.93839 -0.36548,0 -0.63994,0.19438 -1.02835,0.77647 v 3.02754 h -1.47849 v -4.699 h 1.47849 z"
         style="fill:#231f20;fill-opacity:1;fill-rule:nonzero;stroke:none;stroke-width:0.35277778"
         id="path5014"
         inkscape:connector-curvature="0" />
      <path
         d="m 31.834665,159.64437 c -0.59231,0.21414 -1.0922,0.31679 -1.59067,0.31679 -1.65277,0 -2.7231,-0.96061 -2.7231,-2.42887 0,-1.43439 1.10984,-2.45286 2.6596,-2.45286 0.48048,0 1.0929,0.11853 1.58044,0.30515 v 1.09855 c -0.3877,-0.20391 -0.83361,-0.31362 -1.20333,-0.31362 -0.88441,0 -1.45626,0.52705 -1.45626,1.35749 0,0.83432 0.56127,1.38359 1.40582,1.38359 0.35701,0 0.67169,-0.0836 1.3275,-0.32455 z"
         style="fill:#231f20;fill-opacity:1;fill-rule:nonzero;stroke:none;stroke-width:0.35277778"
         id="path5018"
         inkscape:connector-curvature="0" />
      <path
         inkscape:connector-curvature="0"
         id="path5020"
         style="fill:#231f20;fill-opacity:1;fill-rule:nonzero;stroke:none;stroke-width:0.35277778"
         d="m 33.852205,159.86877 h -1.47849 v -4.699 h 1.47849 z m 0.0713,-6.22935 c 0,0.44803 -0.36654,0.81457 -0.81456,0.81457 -0.45121,0 -0.81704,-0.36654 -0.81704,-0.81457 0,-0.44555 0.36583,-0.81491 0.81704,-0.81491 0.44802,0 0.81456,0.36936 0.81456,0.81491" />
      <path
         d="m 38.002285,156.17731 h -1.71274 v 1.93746 c 0,0.46072 0.26388,0.75353 0.72285,0.75353 0.30585,0 0.5916,-0.0674 0.98989,-0.2727 v 1.06715 c -0.52211,0.21732 -0.90805,0.29845 -1.36596,0.29845 -0.97895,0 -1.82562,-0.44908 -1.82562,-1.766 v -2.01789 h -0.6731 v -0.28399 l 1.96779,-2.19992 h 0.18415 v 1.47638 h 1.71274 z"
         style="fill:#231f20;fill-opacity:1;fill-rule:nonzero;stroke:none;stroke-width:0.35277778"
         id="path5024"
         inkscape:connector-curvature="0" />
      <path
         d="m 41.652475,156.98552 c -0.0624,-0.641 -0.4505,-1.03152 -1.02129,-1.03152 -0.58032,0 -0.9585,0.37888 -1.01882,1.03152 z m 1.22132,2.35338 c -0.84738,0.6223 -1.73038,0.6223 -2.09938,0.6223 -1.65136,0 -2.7231,-0.96061 -2.7231,-2.42887 0,-1.4344 1.03294,-2.45287 2.47756,-2.45287 1.36525,0 2.49767,0.96626 2.42747,2.67688 h -3.37538 c 0.0508,0.83926 0.62124,1.32785 1.5501,1.32785 0.59055,0 1.05022,-0.17356 1.74273,-0.67451 z"
         style="fill:#231f20;fill-opacity:1;fill-rule:nonzero;stroke:none;stroke-width:0.35277778"
         id="path5028"
         inkscape:connector-curvature="0" />
      <path
         d="m 47.543506,159.64437 c -0.592312,0.21414 -1.09361,0.31679 -1.590321,0.31679 -1.65171,0 -2.72133,-0.96061 -2.72133,-2.42887 0,-1.43439 1.1116,-2.45286 2.661,-2.45286 0.47978,0 1.088319,0.11853 1.580449,0.30515 v 1.09855 c -0.389818,-0.20391 -0.837139,-0.31362 -1.203679,-0.31362 -0.88688,0 -1.45874,0.52705 -1.45874,1.35749 0,0.83432 0.56092,1.38359 1.406882,1.38359 0.357367,0 0.671689,-0.0836 1.325739,-0.32455 z"
         style="fill:#231f20;fill-opacity:1;fill-rule:nonzero;stroke:none;stroke-width:0.35277778"
         id="path5032"
         inkscape:connector-curvature="0" />
      <path
         d="m 51.866094,155.8016 h 0.806802 c 0.793049,0 1.07986,-0.28646 1.07986,-0.80469 0,-0.59478 -0.338669,-0.80539 -1.272831,-0.80539 h -0.613831 z m 1.365962,-2.88572 c 1.59208,0 2.305748,1.10948 2.305748,2.06022 0,0.9779 -0.693208,2.09938 -2.297639,2.09938 h -1.374071 v 2.79329 h -1.731428 v -6.95289 z"
         style="fill:#231f20;fill-opacity:1;fill-rule:nonzero;stroke:none;stroke-width:0.35277778"
         id="path5036"
         inkscape:connector-curvature="0" />
      <path
         inkscape:connector-curvature="0"
         id="path5038"
         style="fill:#231f20;fill-opacity:1;fill-rule:nonzero;stroke:none;stroke-width:0.35277778"
         d="m 57.617435,159.86877 h -1.479198 v -4.699 h 1.479198 z m 0.0705,-6.22935 c 0,0.44803 -0.36689,0.81457 -0.815621,0.81457 -0.44732,0 -0.81739,-0.36654 -0.81739,-0.81457 10e-7,-0.44555 0.370071,-0.81491 0.817391,-0.81491 0.448731,0 0.815621,0.36936 0.815621,0.81491" />
      <path
         d="m 57.797706,155.16974 h 1.581499 l 0.99872,2.58657 1.00965,-2.58657 h 1.571969 l -2.161818,4.79143 h -0.827611 z"
         style="fill:#231f20;fill-opacity:1;fill-rule:nonzero;stroke:none;stroke-width:0.35277778"
         id="path5042"
         inkscape:connector-curvature="0" />
      <path
         d="m 65.335854,155.954 c -0.642408,0 -1.078788,0.50165 -1.078788,1.55787 0,1.2132 0.518578,1.57233 1.078788,1.57233 0.69215,0 1.059741,-0.57115 1.059741,-1.60479 0,-0.91581 -0.31256,-1.52541 -1.059741,-1.52541 m 0,4.0072 c -1.540229,0 -2.661359,-0.96661 -2.661359,-2.44933 0,-1.59844 1.27635,-2.43241 2.661359,-2.43241 1.153581,0 2.640542,0.63959 2.640542,2.44758 0,1.8616 -1.601959,2.43416 -2.640542,2.43416"
         style="fill:#231f20;fill-opacity:1;fill-rule:nonzero;stroke:none;stroke-width:0.35277778"
         id="path5046"
         inkscape:connector-curvature="0" />
      <path
         d="m 71.860485,156.17731 h -1.710971 v 1.93746 c 0,0.46072 0.264581,0.75353 0.72213,0.75353 0.305861,0 0.590201,-0.0674 0.988841,-0.2727 v 1.06715 c -0.520348,0.21732 -0.908399,0.29845 -1.364898,0.29845 -0.979662,0 -1.826681,-0.44908 -1.826681,-1.766 v -2.01789 h -0.67028 v -0.28399 l 1.966389,-2.19992 h 0.184499 v 1.47638 h 1.710971 z"
         style="fill:#231f20;fill-opacity:1;fill-rule:nonzero;stroke:none;stroke-width:0.35277778"
         id="path5050"
         inkscape:connector-curvature="0" />
      <path
         d="m 79.454026,159.86877 h -5.29872 v -6.9529 h 1.73178 v 5.67973 h 3.56694 z"
         style="fill:#898585;fill-opacity:1;fill-rule:nonzero;stroke:none;stroke-width:0.35277778"
         id="path5054"
         inkscape:connector-curvature="0" />
      <path
         inkscape:connector-curvature="0"
         id="path5056"
         style="fill:#898585;fill-opacity:1;fill-rule:nonzero;stroke:none;stroke-width:0.35277778"
         d="m 81.547055,159.86877 h -1.47955 v -4.699 h 1.47955 z m 0.0709,-6.22935 c 0,0.44803 -0.365829,0.81457 -0.817042,0.81457 -0.447317,0 -0.818089,-0.36654 -0.818089,-0.81457 1e-6,-0.44555 0.370773,-0.81491 0.81809,-0.81491 0.451213,0 0.817042,0.36936 0.817042,0.81491" />
      <path
         d="m 83.829875,155.76914 c 0.254,-0.23283 0.51929,-0.40852 0.78599,-0.52987 0.273751,-0.1136 0.54892,-0.15981 0.846312,-0.15981 0.812448,0 1.36561,0.32314 1.690507,0.99695 0.613482,-0.70485 1.15112,-0.99695 1.854912,-0.99695 1.07174,0 1.83515,0.70026 1.83515,1.77235 v 3.01696 h -1.474261 v -2.75237 c 0,-0.67275 -0.330898,-1.05163 -0.86995,-1.05163 -0.42827,0 -0.827259,0.27975 -1.159229,0.79657 v 3.00743 h -1.48131 v -2.78553 c 0,-0.7613 -0.459319,-1.01847 -0.895699,-1.01847 -0.38912,0 -0.776822,0.22472 -1.132422,0.65264 v 3.15136 h -1.477791 v -4.699 h 1.477791 z"
         style="fill:#898585;fill-opacity:1;fill-rule:nonzero;stroke:none;stroke-width:0.35277778"
         id="path5060"
         inkscape:connector-curvature="0" />
      <path
         inkscape:connector-curvature="0"
         id="path5062"
         style="fill:#898585;fill-opacity:1;fill-rule:nonzero;stroke:none;stroke-width:0.35277778"
         d="m 93.117456,159.86877 h -1.47778 v -4.699 h 1.47778 z m 0.0727,-6.22935 c 0,0.44803 -0.369361,0.81457 -0.815631,0.81457 -0.45085,0 -0.81738,-0.36654 -0.81738,-0.81457 0,-0.44555 0.36653,-0.81491 0.81738,-0.81491 0.44627,0 0.815631,0.36936 0.815631,0.81491" />
      <path
         d="m 97.265065,156.17731 h -1.712378 v 1.93746 c 0,0.46072 0.267758,0.75353 0.7239,0.75353 0.308678,0 0.59513,-0.0674 0.988478,-0.2727 v 1.06715 c -0.518229,0.21732 -0.905928,0.29845 -1.36525,0.29845 -0.977548,0 -1.82421,-0.44908 -1.82421,-1.766 v -2.01789 h -0.67346 v -0.28399 l 1.96745,-2.19992 h 0.183092 v 1.47638 h 1.712378 z"
         style="fill:#898585;fill-opacity:1;fill-rule:nonzero;stroke:none;stroke-width:0.35277778"
         id="path5066"
         inkscape:connector-curvature="0" />
      <path
         d="m 100.91667,156.98552 c -0.0621,-0.641 -0.44839,-1.03152 -1.019533,-1.03152 -0.582431,0 -0.960261,0.37888 -1.019532,1.03152 z m 1.22202,2.35338 c -0.84491,0.6223 -1.73143,0.6223 -2.09797,0.6223 -1.651705,0 -2.721683,-0.96061 -2.721683,-2.42887 0,-1.4344 1.02729,-2.45287 2.474029,-2.45287 1.365614,0 2.501194,0.96626 2.428174,2.67688 h -3.374324 c 0.0512,0.83926 0.621599,1.32785 1.550104,1.32785 0.59337,0 1.04846,-0.17356 1.74167,-0.67451 z"
         style="fill:#898585;fill-opacity:1;fill-rule:nonzero;stroke:none;stroke-width:0.35277778"
         id="path5070"
         inkscape:connector-curvature="0" />
      <path
         d="m 105.95293,156.34452 c -0.21625,-0.15557 -0.55951,-0.27975 -0.82692,-0.27975 -0.744,0 -1.18215,0.54081 -1.18215,1.48202 0,0.85513 0.43815,1.42416 1.1317,1.42416 0.31786,0 0.57291,-0.11007 0.87737,-0.38488 z m 1.47743,3.52425 h -1.47743 V 159.492 c -0.41663,0.33479 -0.80575,0.4692 -1.30528,0.4692 -1.26506,0 -2.20099,-1.03893 -2.20099,-2.44934 0,-1.43545 0.93593,-2.4324 2.28424,-2.4324 0.4244,0 0.82516,0.0991 1.22203,0.2921 v -2.45569 h 1.47743 z"
         style="fill:#898585;fill-opacity:1;fill-rule:nonzero;stroke:none;stroke-width:0.35277778"
         id="path5074"
         inkscape:connector-curvature="0" />
    </g>
  </g>
</svg>
