<?xml version="1.0" encoding="UTF-8"?>
<svg id="Layer_1" data-name="Layer 1" xmlns="http://www.w3.org/2000/svg" viewBox="0 0 1700 440">
  <defs>
    <style>
      .cls-1 {
        fill: #a51c30;
      }
    </style>
  </defs>
  <g>
    <rect class="cls-1" x="587.06" y="260.43" width="12.11" height="69.79"/>
    <path class="cls-1" d="M663.95,330.22l-11.92-30.15c-2.27-5.87-4.38-11.59-6.28-17.02.4,4.16.83,10.78.83,19.93v27.24h-11.8v-69.79h12.33l11.72,29.95c2.94,7.46,4.93,12.98,6.15,16.5-.39-3.96-.8-10.37-.8-19.61v-26.84h11.91v69.79h-12.13Z"/>
    <path class="cls-1" d="M728.06,331.22c-12.39,0-19.49-6.33-19.49-17.38v-5.5h12.11v5.2c0,4.63,2.35,6.78,7.39,6.78s7.49-2.22,7.49-6.78v-1.41c0-3.81-1.28-5.82-5.48-8.59l-11.17-7.35c-6.49-4.21-9.92-10.02-9.92-16.78v-2.61c0-11.05,6.96-17.38,19.09-17.38s19.19,6.34,19.19,17.38v5.19h-12.11v-4.79c0-4.69-2.18-6.79-7.08-6.79s-6.98,2.03-6.98,6.79v1.51c0,3.87,1.54,6.19,5.87,8.88l11.19,7.36c6.58,4.28,9.51,9.3,9.51,16.28v2.72c-.11,10.99-7.25,17.28-19.59,17.28Z"/>
    <polygon class="cls-1" points="786.89 330.22 786.89 271.12 774.2 271.12 774.2 260.43 811.68 260.43 811.68 271.12 798.99 271.12 798.99 330.22 786.89 330.22"/>
    <rect class="cls-1" x="841.54" y="260.43" width="12.11" height="69.79"/>
    <polygon class="cls-1" points="896.11 330.22 896.11 271.12 883.42 271.12 883.42 260.43 920.9 260.43 920.9 271.12 908.21 271.12 908.21 330.22 896.11 330.22"/>
    <path class="cls-1" d="M969.76,331.22c-12.39,0-19.49-6.37-19.49-17.48v-53.31h12v52.92c0,4.57,2.52,6.88,7.49,6.88s7.59-2.19,7.59-6.88v-52.92h12v53.31c0,10.95-7.32,17.48-19.59,17.48Z"/>
    <polygon class="cls-1" points="1031.4 330.22 1031.4 271.12 1018.72 271.12 1018.72 260.43 1056.19 260.43 1056.19 271.12 1043.51 271.12 1043.51 330.22 1031.4 330.22"/>
    <polygon class="cls-1" points="1086.06 330.22 1086.06 260.43 1119.31 260.43 1119.31 271.12 1098.07 271.12 1098.07 289.62 1116.49 289.62 1116.49 300.32 1098.07 300.32 1098.07 319.62 1119.31 319.62 1119.31 330.22 1086.06 330.22"/>
  </g>
  <g>
    <polygon class="cls-1" points="325.64 230.16 325.64 115.65 350.56 115.65 350.56 208.53 404.71 208.53 404.34 231.02 325.64 230.16"/>
    <path class="cls-1" d="M453.85,231.46c-27.87,0-47.34-18.63-47.34-45.32s18.61-45.32,44.25-45.32,43.17,18.77,43.17,45.64c0,1.41-.15,3.16-.29,4.85l-.17,2.03h-62.85l.37,1.35c2.76,10.18,11.54,16.27,23.47,16.27,8.54,0,14.96-2.61,20.83-8.46l12.79,14.7-.03.04c-7.8,9.43-19.31,14.21-34.21,14.21ZM450.91,160.16c-10.45,0-18.25,6.51-20.33,17l-.25,1.28h41.03l-.26-1.28c-2.11-10.48-9.85-17-20.19-17Z"/>
    <path class="cls-1" d="M529.47,231.46c-18.53,0-30.98-10.72-30.98-26.68,0-16.99,12.65-26.34,35.61-26.34h19.2l-.04-1.11c-.42-10.59-7.05-16.18-19.15-16.18-8.74,0-17.89,3.11-23.9,8.13l-8.64-17.82.02-.02c8.81-6.64,22.17-10.61,35.75-10.61,26.12,0,39.93,13.52,39.93,39.1v50.22h-22.45v-10.65l-1.92,2.47c-4.81,6.21-12.91,9.49-23.44,9.49ZM536.73,193.36c-9.86,0-14.86,3.46-14.86,10.28s5.22,10.61,13.62,10.61,15.06-4.28,17.72-11.75l.06-9.14h-16.55Z"/>
    <path class="cls-1" d="M648.86,230.15v-46.46c0-17.15-9.17-20.75-16.86-20.75-12.68,0-19.95,8.63-19.95,23.69v43.51h-23.99v-88.01h22.91v10.23l1.82-1.79c6.38-6.28,15.5-9.74,25.69-9.74,21.53,0,34.38,14.56,34.38,38.94v50.38h-24Z"/>
    <polygon class="cls-1" points="807.71 230.15 807.56 161.32 775.68 218.05 764.5 218.05 732.78 162.8 732.78 230.15 709.4 230.15 709.4 115.65 730 115.65 770.47 186.85 810.33 115.65 830.78 115.65 831.08 230.15 807.71 230.15"/>
    <path class="cls-1" d="M888.61,231.46c-27.87,0-47.34-18.63-47.34-45.32s18.61-45.32,44.25-45.32,43.18,18.77,43.18,45.64c0,1.35-.14,3-.28,4.62l-.18,2.27h-62.85l.37,1.35c2.77,10.18,11.55,16.27,23.47,16.27,8.54,0,14.97-2.61,20.83-8.47l12.79,14.71-.03.04c-7.8,9.43-19.31,14.21-34.21,14.21ZM885.68,160.16c-10.46,0-18.25,6.51-20.34,17l-.25,1.28h41.03l-.26-1.28c-2.11-10.48-9.84-17-20.18-17Z"/>
    <path class="cls-1" d="M975.83,231.46c-19.98,0-30.98-11.22-30.98-31.58v-36.12h-12.81v-19.66h12.81v-21.42h24v21.42h20.68v19.66h-20.68v35.79c0,7.37,3.79,11.59,10.38,11.59,3.6,0,7.13-1.17,9.7-3.23l6.48,17.98-.02.02c-4.69,3.57-11.64,5.54-19.55,5.54Z"/>
    <path class="cls-1" d="M1066,230.15v-46.46c0-17.15-9.17-20.75-16.86-20.75-12.68,0-19.95,8.63-19.95,23.69v43.51h-24v-121.37h24v42.47l1.79-1.63c6.3-5.75,14.82-8.78,24.64-8.78,21.52,0,34.37,14.56,34.37,38.94v50.38h-23.99Z"/>
    <path class="cls-1" d="M1144.65,231.46c-26.44,0-45.64-19.06-45.64-45.32s19.2-45.32,45.64-45.32,45.49,19.06,45.49,45.32-19.13,45.32-45.49,45.32ZM1144.65,161.8c-12.76,0-21.34,9.78-21.34,24.35s8.57,24.34,21.34,24.34,21.18-9.78,21.18-24.34-8.51-24.35-21.18-24.35Z"/>
    <path class="cls-1" d="M1239.98,231.46c-24.42,0-41.47-18.63-41.47-45.32s17.05-45.32,41.47-45.32c9.38,0,17.35,3.02,23.06,8.71l1.83,1.83v-42.59h24v121.37h-22.92v-10.04l-1.85,1.97c-5.84,6.22-13.95,9.38-24.12,9.38ZM1244.14,161.8c-12.76,0-21.34,9.78-21.34,24.35s8.57,24.34,21.34,24.34,21.18-9.78,21.18-24.34-8.51-24.35-21.18-24.35Z"/>
    <path class="cls-1" d="M1335.2,231.46c-13.38,0-27.81-3.81-35.91-9.48h-.02s8.03-18.33,8.03-18.33c7.56,5.14,18.87,8.46,28.83,8.46s15.32-2.61,15.32-7.99-7.86-6.81-16.96-8.22c-14.02-2.17-33.2-5.14-33.2-26.61,0-17.29,15.07-28.47,38.39-28.47,11.9,0,24.42,3.01,31.9,7.68h.02s-8.03,18.17-8.03,18.17c-7.33-4.38-15.15-6.51-23.89-6.51-9.69,0-15.47,3.05-15.47,8.15,0,5.95,8.09,7.29,17.45,8.83,13.81,2.29,32.71,5.41,32.71,26.33,0,17-15.38,27.99-39.16,27.99Z"/>
  </g>
</svg>